<?xml version="1.0" encoding="UTF-8" standalone="no"?>
<!-- Created with Inkscape (http://www.inkscape.org/) -->

<svg
   width="47.409298mm"
   height="14.28202mm"
   viewBox="0 0 47.409298 14.282019"
   version="1.1"
   id="svg1"
   xmlns="http://www.w3.org/2000/svg"
   xmlns:svg="http://www.w3.org/2000/svg">
  <defs
     id="defs1" />
  <g
     id="layer1"
     transform="translate(-80.697916,-141.2875)">
    <g
       id="g17"
       transform="matrix(0.26458333,0,0,0.26458333,58.679489,119.2795)">
      <g
         class="iconsvg-imagesvg"
         id="g6"
         transform="translate(67.002767,80.622737)"
         style="fill:#35495e" />
      <g
         transform="translate(134.00277,83.179849)"
         id="g15"
         style="fill:#35495e">
        <g
           data-gra="path-name"
           fill-rule=""
           class="tp-name iconsvg-namesvg"
           id="g11">
          <g
             id="g10">
            <g
               id="g7">
              <path
                 d="m 14.06,-3.33 c -0.32,0 -0.56,-0.12 -0.72,-0.36 -0.15,-0.24 -0.26,-0.62 -0.31,-1.13 0.18,-0.84 0.27,-2.16 0.27,-3.94 0,-0.51 0,-0.9 -0.01,-1.18 -0.01,-0.27 -0.01,-0.6 -0.02,-0.97 -0.01,-0.38 -0.02,-0.66 -0.04,-0.85 -0.02,-0.19 -0.06,-0.42 -0.11,-0.67 -0.05,-0.26 -0.1,-0.44 -0.16,-0.55 -0.05,-0.12 -0.13,-0.25 -0.23,-0.41 -0.1,-0.15 -0.21,-0.26 -0.32,-0.31 -0.11,-0.06 -0.25,-0.12 -0.42,-0.2 -0.17,-0.07 -0.35,-0.11 -0.54,-0.12 -0.2,-0.02 -0.42,-0.02 -0.67,-0.02 -0.44,0 -0.78,0.04 -1.03,0.11 -0.25,0.08 -0.47,0.21 -0.67,0.4 -0.2,0.18 -0.34,0.48 -0.42,0.91 -0.09,0.42 -0.15,0.92 -0.2,1.5 -0.04,0.58 -0.06,1.36 -0.06,2.34 0,1.74 0.09,3.02 0.28,3.84 -0.06,0.58 -0.17,1 -0.32,1.26 -0.16,0.26 -0.39,0.39 -0.7,0.39 -0.62,0 -1.04,-0.3 -1.25,-0.91 C 6.19,-4.81 6.09,-5.79 6.09,-7.15 l -0.02,-5.18 c 0,-0.49 -0.07,-0.89 -0.21,-1.2 -0.15,-0.32 -0.39,-0.55 -0.73,-0.72 -0.34,-0.16 -0.8,-0.24 -1.38,-0.24 -0.69,0 -1.21,0.17 -1.58,0.51 -0.36,0.34 -0.62,0.98 -0.8,1.93 -0.18,0.95 -0.27,2.35 -0.27,4.2 0,1.15 0.14,2.19 0.42,3.13 0.27,0.94 0.63,1.7 1.07,2.29 0.44,0.59 0.94,1.08 1.51,1.48 0.58,0.39 1.14,0.67 1.69,0.83 0.55,0.17 1.1,0.25 1.66,0.25 1.28,0 2.44,-0.42 3.45,-1.25 1.04,0.8 2.19,1.2 3.46,1.2 0.37,0 0.75,-0.03 1.14,-0.11 0.39,-0.08 0.79,-0.21 1.2,-0.4 0.41,-0.2 0.79,-0.43 1.16,-0.72 0.37,-0.28 0.72,-0.64 1.05,-1.07 0.33,-0.43 0.62,-0.91 0.86,-1.45 0.24,-0.54 0.43,-1.17 0.57,-1.89 0.15,-0.72 0.22,-1.5 0.22,-2.33 0,-1.4 -0.05,-2.53 -0.13,-3.37 -0.09,-0.85 -0.24,-1.53 -0.47,-2.02 -0.22,-0.5 -0.5,-0.83 -0.81,-1 -0.32,-0.17 -0.74,-0.25 -1.27,-0.25 -0.85,0 -1.44,0.17 -1.79,0.52 -0.35,0.34 -0.52,0.89 -0.52,1.64 l -0.04,5.2 c 0,1.36 -0.11,2.34 -0.32,2.94 -0.21,0.6 -0.59,0.9 -1.15,0.9 z M 28,-3.18 v -9 c 0,-0.94 -0.21,-1.57 -0.62,-1.88 -0.42,-0.32 -1.04,-0.47 -1.86,-0.47 -1.6,0 -2.4,0.85 -2.4,2.54 v 8.98 c 0,1.13 0.2,1.91 0.59,2.35 C 24.1,-0.22 24.7,0 25.52,0 26.35,0 26.98,-0.25 27.39,-0.76 27.8,-1.27 28,-2.08 28,-3.18 Z m 8.59,-11.5 c -1.95,0 -3.45,0.37 -4.51,1.12 -1.06,0.75 -1.6,1.72 -1.6,2.91 0,0.37 0.09,0.77 0.26,1.2 0.17,0.43 0.44,0.87 0.82,1.3 0.37,0.44 0.82,0.81 1.34,1.11 0.4,0.22 0.81,0.45 1.23,0.68 0.43,0.22 0.77,0.41 1.03,0.55 l 0.79,0.42 c 0.26,0.14 0.46,0.26 0.61,0.35 0.15,0.09 0.29,0.19 0.41,0.3 0.12,0.1 0.2,0.21 0.25,0.32 0.05,0.1 0.07,0.22 0.07,0.35 0,0.44 -0.31,0.65 -0.95,0.65 -0.69,0 -1.61,-0.18 -2.74,-0.56 -1.13,-0.37 -1.84,-0.56 -2.14,-0.56 -0.4,0 -0.7,0.11 -0.9,0.33 -0.21,0.22 -0.31,0.48 -0.31,0.79 0,0.29 0.11,0.59 0.32,0.92 0.21,0.32 0.53,0.64 0.94,0.95 0.42,0.31 0.9,0.6 1.45,0.85 0.54,0.25 1.18,0.46 1.91,0.62 0.72,0.15 1.48,0.23 2.25,0.23 3.95,0 5.92,-1.47 5.92,-4.39 0,-0.74 -0.22,-1.39 -0.65,-1.95 -0.44,-0.57 -1.21,-1.16 -2.3,-1.79 -0.33,-0.19 -0.75,-0.42 -1.25,-0.69 -0.49,-0.26 -0.88,-0.47 -1.16,-0.62 -0.29,-0.16 -0.58,-0.34 -0.87,-0.54 -0.3,-0.21 -0.52,-0.41 -0.65,-0.6 -0.13,-0.19 -0.2,-0.39 -0.2,-0.6 0,-0.68 0.42,-1.02 1.25,-1.02 0.52,0 1.1,0.13 1.72,0.39 0.62,0.26 1.19,0.53 1.7,0.79 0.5,0.26 0.89,0.39 1.14,0.39 0.16,0 0.3,-0.03 0.44,-0.1 0.13,-0.06 0.24,-0.16 0.33,-0.31 0.1,-0.15 0.14,-0.33 0.14,-0.54 0,-0.78 -0.59,-1.52 -1.78,-2.21 -1.19,-0.69 -2.62,-1.04 -4.31,-1.04 z m 22.83,11.5 v -9 c 0,-0.94 -0.21,-1.57 -0.63,-1.88 -0.41,-0.32 -1.03,-0.47 -1.85,-0.47 -0.48,0 -0.9,0.08 -1.24,0.24 -0.35,0.16 -0.63,0.44 -0.85,0.83 -0.22,0.39 -0.33,0.88 -0.33,1.47 v 3.38 h -4.31 v -3.57 c 0,-0.94 -0.2,-1.57 -0.6,-1.88 -0.4,-0.32 -1.03,-0.47 -1.88,-0.47 -0.73,0 -1.32,0.2 -1.77,0.61 -0.45,0.41 -0.67,1.06 -0.67,1.93 l 0.07,8.96 c 0,1.13 0.19,1.92 0.57,2.36 0.38,0.45 0.98,0.67 1.8,0.67 0.86,0 1.49,-0.24 1.89,-0.72 0.4,-0.48 0.59,-1.3 0.59,-2.46 v -2.25 h 4.33 l 0.02,2.4 c 0,1.13 0.19,1.92 0.58,2.36 0.38,0.45 0.98,0.67 1.8,0.67 0.83,0 1.46,-0.24 1.87,-0.73 0.41,-0.49 0.61,-1.31 0.61,-2.45 z m 21.24,-8.81 c 0,-0.9 -0.21,-1.55 -0.62,-1.95 -0.41,-0.39 -1.02,-0.59 -1.84,-0.59 -0.37,0 -0.69,0.03 -0.95,0.08 -0.26,0.06 -0.52,0.17 -0.76,0.32 -0.25,0.16 -0.43,0.4 -0.55,0.72 -0.12,0.33 -0.18,0.73 -0.18,1.21 v 6.94 c 0,0.3 -0.02,0.54 -0.06,0.72 -0.03,0.18 -0.1,0.37 -0.21,0.55 -0.11,0.19 -0.27,0.32 -0.5,0.4 -0.22,0.09 -0.51,0.13 -0.87,0.13 -0.35,0 -0.64,-0.05 -0.87,-0.16 -0.22,-0.1 -0.4,-0.29 -0.54,-0.56 -0.13,-0.27 -0.21,-0.63 -0.22,-1.08 v -6.92 c 0,-0.94 -0.22,-1.57 -0.65,-1.88 -0.43,-0.32 -1.06,-0.47 -1.9,-0.47 -0.68,0 -1.24,0.24 -1.68,0.71 -0.45,0.47 -0.67,1.08 -0.67,1.83 v 6.33 c 0,1.93 0.52,3.38 1.58,4.34 1.05,0.97 2.7,1.45 4.95,1.45 2.36,0 4.04,-0.45 5.04,-1.35 1,-0.9 1.5,-2.38 1.5,-4.44 z m 7.76,8.81 v -1.19 h 1.21 c 1.19,0 2.26,-0.18 3.2,-0.55 0.95,-0.37 1.71,-0.92 2.29,-1.67 0.58,-0.74 0.87,-1.61 0.87,-2.62 0,-0.82 -0.16,-1.56 -0.47,-2.24 -0.32,-0.67 -0.77,-1.23 -1.34,-1.67 -0.57,-0.45 -1.25,-0.79 -2.03,-1.04 -0.77,-0.25 -1.62,-0.37 -2.54,-0.37 h -3.78 c -0.76,0 -1.38,0.21 -1.84,0.62 -0.47,0.42 -0.7,1.06 -0.7,1.92 v 8.96 c 0,1.13 0.2,1.92 0.61,2.36 0.41,0.45 1.06,0.67 1.93,0.67 0.88,0 1.53,-0.24 1.95,-0.73 0.43,-0.49 0.64,-1.31 0.64,-2.45 z m 2.67,-6.32 c 0,0.45 -0.06,0.83 -0.2,1.15 -0.13,0.32 -0.33,0.56 -0.58,0.73 -0.26,0.17 -0.54,0.29 -0.84,0.36 -0.3,0.08 -0.65,0.11 -1.05,0.11 v -4.67 c 0.51,0 0.91,0.03 1.2,0.08 0.29,0.05 0.56,0.15 0.81,0.31 0.24,0.15 0.42,0.38 0.51,0.69 0.1,0.3 0.15,0.71 0.15,1.24 z m 13.93,9.63 c 1.39,0 2.65,-0.28 3.77,-0.84 1.11,-0.56 2.01,-1.4 2.68,-2.51 0.67,-1.12 1.01,-2.44 1.01,-3.95 0,-2.29 -0.7,-4.11 -2.08,-5.46 -1.39,-1.35 -3.18,-2.03 -5.37,-2.03 -2.19,0 -3.98,0.68 -5.36,2.03 -1.37,1.35 -2.06,3.17 -2.06,5.46 0,1.51 0.33,2.83 0.99,3.95 0.67,1.11 1.56,1.95 2.67,2.51 1.11,0.56 2.36,0.84 3.75,0.84 z m 0.01,-3.1 c -0.45,0 -0.85,-0.21 -1.2,-0.64 -0.34,-0.42 -0.6,-0.94 -0.76,-1.57 -0.16,-0.62 -0.25,-1.28 -0.25,-1.99 0,-0.71 0.09,-1.39 0.26,-2.04 0.17,-0.65 0.42,-1.2 0.76,-1.65 0.34,-0.45 0.74,-0.68 1.19,-0.68 0.47,0 0.87,0.23 1.22,0.68 0.35,0.45 0.6,1 0.75,1.64 0.16,0.65 0.24,1.33 0.24,2.05 0,0.71 -0.08,1.37 -0.23,1.99 -0.14,0.63 -0.39,1.15 -0.74,1.57 -0.34,0.43 -0.76,0.64 -1.24,0.64 z m 23.55,0.95 v -10.69 c 0,-0.63 -0.14,-1.09 -0.4,-1.38 -0.27,-0.28 -0.71,-0.42 -1.32,-0.42 -0.52,0 -0.94,0.15 -1.24,0.46 -0.3,0.3 -0.46,0.76 -0.46,1.36 v 4.63 l -5.36,-5.35 c -0.44,-0.42 -0.82,-0.72 -1.14,-0.88 -0.32,-0.16 -0.74,-0.24 -1.26,-0.24 -0.76,0 -1.35,0.2 -1.76,0.61 -0.41,0.41 -0.62,1.02 -0.62,1.83 v 10.24 c 0,0.67 0.15,1.14 0.45,1.43 0.3,0.28 0.75,0.42 1.38,0.42 0.56,0 0.98,-0.13 1.24,-0.38 0.26,-0.26 0.39,-0.73 0.39,-1.42 v -4.61 l 3.88,3.67 c 0.13,0.13 0.34,0.33 0.62,0.6 0.28,0.27 0.49,0.46 0.62,0.58 0.14,0.12 0.32,0.28 0.56,0.49 0.23,0.2 0.42,0.36 0.58,0.45 0.15,0.1 0.33,0.21 0.54,0.32 0.2,0.12 0.4,0.19 0.58,0.24 0.19,0.04 0.37,0.06 0.55,0.06 0.71,0 1.25,-0.18 1.62,-0.54 0.36,-0.36 0.55,-0.85 0.55,-1.48 z"
                 transform="translate(-1.1,14.68)"
                 id="path6" />
            </g>
            <!---->
            <!---->
            <!---->
            <!---->
            <!---->
            <!---->
            <g
               data-gra="path-name-1"
               fill="#35495e"
               transform="translate(0,17.830001)"
               id="g9">
              <g
                 transform="scale(1.00346)"
                 id="g8">
                <path
                   d="m 14.6,-5.04 v 1.75 c 0,1.13 0.3,1.96 0.9,2.49 0.6,0.53 1.63,0.8 3.09,0.8 1.04,0 1.8,-0.28 2.3,-0.83 0.5,-0.55 0.85,-1.53 1.06,-2.94 0.21,-1.4 0.32,-3.56 0.32,-6.49 0,-1.81 -0.22,-3.45 -0.66,-4.91 -0.45,-1.46 -1.02,-2.65 -1.71,-3.57 -0.7,-0.91 -1.51,-1.68 -2.44,-2.3 -0.93,-0.62 -1.85,-1.06 -2.76,-1.31 -0.9,-0.26 -1.82,-0.38 -2.75,-0.38 -0.78,0 -1.55,0.09 -2.31,0.28 -0.76,0.19 -1.55,0.47 -2.36,0.84 -0.8,0.38 -1.55,0.91 -2.24,1.58 -0.68,0.68 -1.3,1.46 -1.84,2.34 -0.54,0.89 -0.97,1.96 -1.29,3.24 -0.32,1.27 -0.48,2.67 -0.48,4.19 0,1.75 0.04,3.2 0.11,4.34 0.08,1.14 0.19,2.11 0.34,2.92 0.14,0.8 0.36,1.42 0.66,1.84 0.3,0.42 0.65,0.72 1.04,0.89 C 3.98,-0.09 4.49,0 5.11,0 6.57,0 7.6,-0.27 8.2,-0.8 8.79,-1.33 9.09,-2.16 9.09,-3.29 v -1.75 z m -2.72,-12.28 c 0.6,0 1.09,0.1 1.48,0.31 0.39,0.21 0.69,0.6 0.91,1.16 0.22,0.57 0.33,1.31 0.33,2.24 v 3.99 H 9.09 v -3.92 c 0,-1.42 0.23,-2.4 0.68,-2.95 0.46,-0.56 1.16,-0.83 2.11,-0.83 z m 36.41,0.83 c 0,0.3 -0.21,0.84 -0.61,1.59 -0.41,0.75 -0.62,1.34 -0.62,1.76 0,0.9 0.36,1.6 1.06,2.09 0.71,0.48 1.51,0.73 2.39,0.73 1.55,0 2.81,-0.59 3.79,-1.78 0.97,-1.18 1.46,-2.5 1.46,-3.96 0,-1.26 -0.45,-2.43 -1.33,-3.49 -0.89,-1.06 -2.08,-1.89 -3.58,-2.49 -1.51,-0.59 -3.15,-0.89 -4.92,-0.89 -3.47,0 -6.28,1.04 -8.43,3.12 -2.14,2.08 -3.22,4.91 -3.22,8.49 0,1.82 0.31,3.45 0.93,4.91 0.62,1.46 1.47,2.68 2.56,3.64 1.08,0.96 2.36,1.7 3.83,2.22 1.47,0.52 3.07,0.78 4.8,0.78 1.3,0 2.55,-0.19 3.73,-0.58 1.19,-0.39 2.18,-0.87 2.97,-1.46 0.8,-0.59 1.5,-1.23 2.09,-1.92 0.6,-0.7 1.04,-1.36 1.31,-1.98 0.28,-0.62 0.42,-1.16 0.42,-1.62 0,-0.43 -0.18,-0.83 -0.53,-1.22 -0.36,-0.38 -0.78,-0.58 -1.26,-0.58 -0.38,0 -0.82,0.16 -1.31,0.48 -0.5,0.33 -0.98,0.68 -1.45,1.07 -0.46,0.38 -1.07,0.74 -1.82,1.06 -0.76,0.32 -1.54,0.48 -2.36,0.48 -1.11,0 -2.08,-0.28 -2.92,-0.83 -0.84,-0.55 -1.48,-1.3 -1.93,-2.24 -0.44,-0.94 -0.66,-2 -0.66,-3.17 0,-1.53 0.34,-2.89 1.03,-4.1 0.69,-1.2 1.56,-1.81 2.62,-1.81 0.53,0 0.99,0.17 1.38,0.5 0.39,0.33 0.58,0.73 0.58,1.2 z m 24.89,11.45 v 1.75 c 0,1.13 0.3,1.96 0.9,2.49 0.59,0.53 1.62,0.8 3.08,0.8 1.04,0 1.81,-0.28 2.31,-0.83 0.5,-0.55 0.85,-1.53 1.06,-2.94 0.21,-1.4 0.32,-3.56 0.32,-6.49 0,-1.81 -0.22,-3.45 -0.67,-4.91 -0.44,-1.46 -1.01,-2.65 -1.71,-3.57 -0.69,-0.91 -1.51,-1.68 -2.43,-2.3 -0.93,-0.62 -1.85,-1.06 -2.76,-1.31 -0.91,-0.26 -1.82,-0.38 -2.75,-0.38 -0.78,0 -1.55,0.09 -2.31,0.28 -0.76,0.19 -1.55,0.47 -2.36,0.84 -0.8,0.38 -1.55,0.91 -2.24,1.58 -0.68,0.68 -1.3,1.46 -1.84,2.34 -0.54,0.89 -0.97,1.96 -1.29,3.24 -0.32,1.27 -0.48,2.67 -0.48,4.19 0,1.75 0.03,3.2 0.11,4.34 0.08,1.14 0.19,2.11 0.33,2.92 0.15,0.8 0.37,1.42 0.67,1.84 0.3,0.42 0.64,0.72 1.04,0.89 0.4,0.18 0.91,0.27 1.53,0.27 1.46,0 2.49,-0.27 3.09,-0.8 0.59,-0.53 0.89,-1.36 0.89,-2.49 v -1.75 z m -2.72,-12.28 c 0.6,0 1.09,0.1 1.48,0.31 0.38,0.21 0.69,0.6 0.91,1.16 0.22,0.57 0.33,1.31 0.33,2.24 v 3.99 h -5.51 v -3.92 c 0,-1.42 0.23,-2.4 0.68,-2.95 0.46,-0.56 1.16,-0.83 2.11,-0.83 z M 91.87,-4.98 V -8.2 l 1.82,-0.03 c 0.75,0 1.34,0.11 1.76,0.33 0.42,0.22 0.76,0.7 1.03,1.44 0.26,0.75 0.4,1.8 0.4,3.17 0,1.11 0.3,1.93 0.91,2.48 0.61,0.54 1.57,0.81 2.87,0.81 0.93,0 1.65,-0.13 2.16,-0.4 0.51,-0.26 0.9,-0.79 1.18,-1.57 0.27,-0.79 0.41,-1.91 0.41,-3.37 0,-1.44 -0.45,-2.64 -1.36,-3.6 -0.91,-0.97 -1.89,-1.48 -2.95,-1.55 1.39,-0.4 2.4,-1.02 3.03,-1.87 0.63,-0.85 0.95,-2.03 0.95,-3.54 0,-1.99 -0.84,-3.62 -2.52,-4.89 -1.68,-1.27 -3.89,-1.91 -6.61,-1.91 h -6.97 c -1.13,0 -2.04,0.34 -2.73,1.01 -0.7,0.68 -1.05,1.66 -1.05,2.94 v 14 c 0,1.77 0.3,3.01 0.91,3.7 0.61,0.7 1.57,1.05 2.87,1.05 2.59,0 3.89,-1.66 3.89,-4.98 z m 5.07,-11.15 c 0,1.11 -0.41,1.88 -1.24,2.31 -0.83,0.43 -2.11,0.64 -3.83,0.64 v -5.74 c 1.83,0 3.14,0.2 3.91,0.6 0.78,0.4 1.16,1.13 1.16,2.19 z m 20.08,-6.57 h -4.88 c -2.52,0 -3.78,1.32 -3.78,3.95 v 14 c 0,1.8 0.29,3.04 0.88,3.72 0.59,0.69 1.55,1.03 2.9,1.03 h 6.54 c 1.42,0 2.69,-0.23 3.82,-0.68 1.13,-0.45 2.06,-1.05 2.79,-1.79 0.73,-0.74 1.34,-1.62 1.82,-2.62 0.49,-1.01 0.84,-2.05 1.05,-3.11 0.21,-1.06 0.31,-2.15 0.31,-3.28 0,-3.5 -1.04,-6.24 -3.13,-8.23 -2.09,-2 -4.87,-2.99 -8.32,-2.99 z m -0.99,18.19 v -13.58 c 0.71,0.02 1.31,0.13 1.81,0.32 0.49,0.19 0.95,0.51 1.37,0.96 0.42,0.45 0.74,1.12 0.97,1.99 0.22,0.88 0.33,1.94 0.33,3.2 0,1.13 -0.07,2.11 -0.22,2.94 -0.14,0.83 -0.34,1.51 -0.58,2.04 -0.24,0.53 -0.56,0.96 -0.94,1.28 -0.39,0.32 -0.8,0.54 -1.23,0.66 -0.43,0.13 -0.94,0.19 -1.51,0.19 z"
                   transform="translate(-1.4300001,22.93)"
                   id="path7" />
              </g>
            </g>
          </g>
        </g>
        <g
           data-gra="path-slogan"
           fill-rule=""
           class="tp-slogan iconsvg-slogansvg"
           fill="#41b883"
           transform="translate(-0.92499924,47.070137)"
           id="g14">
          <rect
             width="0"
             id="rect11"
             height="0"
             x="0"
             y="0" />
          <rect
             x="132.33"
             width="0"
             id="rect12"
             height="0"
             y="0" />
          <g
             id="g13">
            <g
               id="g12">
              <path
                 d="M 0.23,-6.67 1.65,0 h 1 l 0.99,-4.01 c 0.05,-0.26 0.11,-0.51 0.17,-0.76 0.05,-0.25 0.11,-0.5 0.16,-0.76 h 0.04 c 0.06,0.26 0.11,0.51 0.16,0.76 0.05,0.25 0.11,0.5 0.17,0.76 L 5.35,0 H 6.36 L 7.74,-6.67 H 6.93 l -0.7,3.63 C 6.16,-2.68 6.1,-2.32 6.04,-1.97 5.98,-1.61 5.92,-1.25 5.85,-0.88 H 5.81 C 5.73,-1.25 5.65,-1.61 5.57,-1.97 5.49,-2.33 5.41,-2.69 5.33,-3.04 L 4.4,-6.67 H 3.63 L 2.7,-3.04 C 2.63,-2.68 2.55,-2.32 2.47,-1.97 2.39,-1.61 2.31,-1.25 2.24,-0.88 H 2.2 C 2.13,-1.25 2.07,-1.61 2,-1.96 1.93,-2.31 1.87,-2.67 1.81,-3.04 l -0.7,-3.63 z m 8.67,0 V 0 h 0.85 v -3.14 h 3.1 V 0 h 0.85 v -6.67 h -0.85 v 2.8 h -3.1 v -2.8 z m 6.63,0 V 0 h 3.94 v -0.72 h -3.1 v -2.42 h 2.53 v -0.72 h -2.53 v -2.1 h 3 v -0.71 z m 6.2,3.16 v -2.48 h 1.12 c 0.52,0 0.92,0.09 1.2,0.27 0.27,0.17 0.41,0.48 0.41,0.92 0,0.44 -0.14,0.76 -0.41,0.97 -0.28,0.22 -0.68,0.32 -1.2,0.32 z M 24.54,0 h 0.96 l -1.69,-2.91 c 0.46,-0.11 0.82,-0.33 1.09,-0.64 0.27,-0.31 0.41,-0.73 0.41,-1.25 0,-0.34 -0.06,-0.63 -0.18,-0.87 -0.11,-0.24 -0.27,-0.43 -0.48,-0.58 -0.21,-0.15 -0.45,-0.26 -0.74,-0.32 -0.29,-0.07 -0.6,-0.1 -0.94,-0.1 H 20.89 V 0 h 0.84 v -2.82 h 1.21 z m 2.25,-6.67 V 0 h 3.94 v -0.72 h -3.1 v -2.42 h 2.53 v -0.72 h -2.53 v -2.1 h 3 v -0.71 z m 6.73,0 1.41,6.67 h 1.01 l 0.98,-4.01 c 0.06,-0.26 0.11,-0.51 0.17,-0.76 0.06,-0.25 0.11,-0.5 0.17,-0.76 h 0.04 c 0.05,0.26 0.11,0.51 0.16,0.76 0.05,0.25 0.1,0.5 0.16,0.76 L 38.63,0 h 1.02 l 1.38,-6.67 h -0.81 l -0.7,3.63 c -0.07,0.36 -0.14,0.72 -0.2,1.07 -0.06,0.36 -0.12,0.72 -0.18,1.09 H 39.1 c -0.08,-0.37 -0.16,-0.73 -0.25,-1.09 -0.08,-0.36 -0.16,-0.72 -0.24,-1.07 l -0.92,-3.63 h -0.78 l -0.92,3.63 c -0.08,0.36 -0.15,0.72 -0.24,1.07 -0.08,0.36 -0.15,0.72 -0.23,1.09 h -0.04 c -0.06,-0.37 -0.12,-0.73 -0.19,-1.08 -0.07,-0.35 -0.13,-0.71 -0.2,-1.08 l -0.7,-3.63 z m 8.67,0 V 0 h 0.84 v -6.67 z m 2.69,5.22 -0.51,0.59 c 0.29,0.3 0.64,0.54 1.04,0.72 0.4,0.17 0.83,0.26 1.3,0.26 0.35,0 0.67,-0.05 0.95,-0.15 0.27,-0.09 0.51,-0.23 0.71,-0.4 0.19,-0.17 0.34,-0.38 0.45,-0.61 0.1,-0.23 0.16,-0.47 0.16,-0.74 0,-0.24 -0.04,-0.46 -0.11,-0.64 -0.07,-0.19 -0.17,-0.35 -0.29,-0.49 -0.12,-0.14 -0.27,-0.26 -0.44,-0.37 -0.17,-0.1 -0.34,-0.2 -0.53,-0.28 l -0.95,-0.4 c -0.14,-0.06 -0.27,-0.12 -0.4,-0.18 -0.12,-0.07 -0.24,-0.14 -0.35,-0.23 -0.11,-0.08 -0.2,-0.18 -0.26,-0.29 -0.07,-0.11 -0.1,-0.25 -0.1,-0.41 0,-0.31 0.12,-0.55 0.34,-0.72 0.23,-0.17 0.53,-0.26 0.9,-0.26 0.31,0 0.59,0.06 0.84,0.17 0.25,0.11 0.47,0.27 0.68,0.46 l 0.45,-0.55 c -0.23,-0.24 -0.52,-0.44 -0.86,-0.59 -0.34,-0.15 -0.71,-0.23 -1.11,-0.23 -0.3,0 -0.58,0.04 -0.84,0.13 -0.25,0.09 -0.47,0.21 -0.66,0.37 -0.18,0.16 -0.33,0.35 -0.43,0.57 -0.11,0.21 -0.16,0.45 -0.16,0.7 0,0.24 0.04,0.46 0.12,0.64 0.08,0.19 0.19,0.35 0.32,0.49 0.12,0.13 0.27,0.25 0.43,0.34 0.17,0.1 0.32,0.18 0.48,0.25 l 0.96,0.41 c 0.15,0.08 0.3,0.15 0.43,0.22 0.14,0.06 0.26,0.14 0.35,0.23 0.1,0.08 0.18,0.18 0.24,0.3 0.05,0.12 0.08,0.26 0.08,0.43 0,0.33 -0.12,0.59 -0.36,0.79 -0.25,0.2 -0.59,0.3 -1.03,0.3 -0.34,0 -0.68,-0.08 -1,-0.23 C 45.4,-1 45.12,-1.2 44.88,-1.45 Z m 5.41,-5.22 V 0 h 0.84 v -3.14 h 3.1 V 0 h 0.86 v -6.67 h -0.86 v 2.8 h -3.1 v -2.8 z m 6.63,0 V 0 h 3.94 v -0.72 h -3.1 v -2.42 h 2.53 v -0.72 h -2.53 v -2.1 h 3 v -0.71 z m 5.37,5.22 -0.51,0.59 c 0.29,0.3 0.64,0.54 1.04,0.72 0.4,0.17 0.83,0.26 1.3,0.26 0.35,0 0.67,-0.05 0.95,-0.15 0.27,-0.09 0.51,-0.23 0.71,-0.4 0.19,-0.17 0.34,-0.38 0.45,-0.61 0.1,-0.23 0.16,-0.47 0.16,-0.74 0,-0.24 -0.04,-0.46 -0.11,-0.64 -0.07,-0.19 -0.17,-0.35 -0.29,-0.49 -0.12,-0.14 -0.27,-0.26 -0.44,-0.37 -0.17,-0.1 -0.35,-0.2 -0.53,-0.28 l -0.95,-0.4 c -0.14,-0.06 -0.27,-0.12 -0.4,-0.18 -0.13,-0.07 -0.24,-0.14 -0.35,-0.23 -0.11,-0.08 -0.2,-0.18 -0.26,-0.29 -0.07,-0.11 -0.1,-0.25 -0.1,-0.41 0,-0.31 0.12,-0.55 0.34,-0.72 0.23,-0.17 0.53,-0.26 0.9,-0.26 0.31,0 0.59,0.06 0.84,0.17 0.25,0.11 0.47,0.27 0.68,0.46 l 0.45,-0.55 c -0.23,-0.24 -0.52,-0.44 -0.86,-0.59 -0.34,-0.15 -0.71,-0.23 -1.11,-0.23 -0.3,0 -0.58,0.04 -0.84,0.13 -0.25,0.09 -0.47,0.21 -0.66,0.37 -0.18,0.16 -0.33,0.35 -0.43,0.57 -0.11,0.21 -0.16,0.45 -0.16,0.7 0,0.24 0.04,0.46 0.12,0.64 0.08,0.19 0.19,0.35 0.32,0.49 0.12,0.13 0.27,0.25 0.43,0.34 0.17,0.1 0.32,0.18 0.48,0.25 l 0.96,0.41 c 0.15,0.08 0.3,0.15 0.43,0.22 0.14,0.06 0.26,0.14 0.35,0.23 0.1,0.08 0.18,0.18 0.24,0.3 0.05,0.12 0.08,0.26 0.08,0.43 0,0.33 -0.12,0.59 -0.36,0.79 -0.25,0.2 -0.59,0.3 -1.03,0.3 -0.34,0 -0.68,-0.08 -1,-0.23 -0.32,-0.15 -0.6,-0.35 -0.84,-0.6 z m 7.46,-5.22 V 0 h 2.13 c 0.37,0 0.71,-0.04 1.02,-0.12 0.31,-0.08 0.58,-0.21 0.8,-0.37 0.23,-0.16 0.4,-0.36 0.52,-0.61 0.13,-0.24 0.19,-0.53 0.19,-0.85 0,-0.46 -0.14,-0.82 -0.41,-1.09 -0.27,-0.26 -0.65,-0.43 -1.14,-0.51 v -0.04 c 0.39,-0.1 0.69,-0.28 0.88,-0.55 0.19,-0.27 0.28,-0.57 0.28,-0.9 0,-0.29 -0.06,-0.54 -0.17,-0.75 -0.11,-0.2 -0.27,-0.37 -0.47,-0.5 -0.2,-0.13 -0.44,-0.22 -0.72,-0.29 -0.28,-0.06 -0.59,-0.09 -0.93,-0.09 z m 1.83,2.85 H 70.59 V -6 h 1.03 c 0.52,0 0.91,0.08 1.18,0.24 0.26,0.16 0.39,0.42 0.39,0.79 0,0.37 -0.13,0.66 -0.37,0.85 -0.25,0.2 -0.66,0.3 -1.24,0.3 z m 0.17,3.15 h -1.16 v -2.52 h 1.16 c 0.59,0 1.04,0.1 1.36,0.29 0.31,0.19 0.46,0.49 0.46,0.91 0,0.45 -0.16,0.79 -0.47,1 -0.32,0.21 -0.77,0.32 -1.35,0.32 z m 3.98,-6 V 0 h 3.94 v -0.72 h -3.1 v -2.42 h 2.53 v -0.72 h -2.53 v -2.1 h 3 v -0.71 z m 4.97,3.34 c 0,0.54 0.07,1.02 0.22,1.45 0.14,0.44 0.34,0.8 0.61,1.09 0.26,0.3 0.56,0.52 0.92,0.68 0.36,0.15 0.74,0.23 1.16,0.23 0.43,0 0.81,-0.08 1.14,-0.25 0.33,-0.17 0.63,-0.41 0.9,-0.71 l -0.48,-0.52 c -0.22,0.24 -0.45,0.42 -0.69,0.55 -0.24,0.13 -0.52,0.19 -0.85,0.19 -0.31,0 -0.6,-0.06 -0.85,-0.19 -0.26,-0.13 -0.47,-0.31 -0.65,-0.55 -0.18,-0.24 -0.31,-0.53 -0.41,-0.86 -0.1,-0.34 -0.15,-0.71 -0.15,-1.13 0,-0.42 0.05,-0.79 0.15,-1.12 0.11,-0.33 0.25,-0.62 0.43,-0.85 0.18,-0.23 0.4,-0.41 0.66,-0.54 0.26,-0.12 0.55,-0.19 0.87,-0.19 0.28,0 0.53,0.06 0.74,0.17 0.22,0.11 0.41,0.26 0.59,0.45 l 0.47,-0.54 c -0.19,-0.21 -0.44,-0.4 -0.75,-0.57 -0.3,-0.17 -0.66,-0.25 -1.06,-0.25 -0.43,0 -0.83,0.08 -1.19,0.24 -0.36,0.16 -0.67,0.39 -0.94,0.69 -0.26,0.29 -0.47,0.66 -0.62,1.08 -0.15,0.43 -0.22,0.91 -0.22,1.45 z m 8.35,3.45 c 0.42,0 0.81,-0.08 1.16,-0.24 0.34,-0.16 0.65,-0.4 0.9,-0.7 0.25,-0.3 0.45,-0.67 0.59,-1.1 0.14,-0.43 0.21,-0.91 0.21,-1.44 0,-0.53 -0.07,-1.01 -0.21,-1.43 -0.14,-0.43 -0.34,-0.78 -0.59,-1.08 -0.25,-0.29 -0.56,-0.52 -0.9,-0.68 -0.35,-0.16 -0.74,-0.24 -1.16,-0.24 -0.42,0 -0.8,0.08 -1.15,0.23 -0.35,0.16 -0.65,0.39 -0.9,0.68 -0.25,0.3 -0.45,0.65 -0.59,1.08 -0.13,0.42 -0.2,0.9 -0.2,1.44 0,0.53 0.07,1.01 0.2,1.44 0.14,0.43 0.34,0.8 0.59,1.1 0.25,0.3 0.55,0.54 0.9,0.7 0.35,0.16 0.73,0.24 1.15,0.24 z m 0,-0.74 c -0.3,0 -0.57,-0.06 -0.81,-0.19 -0.24,-0.13 -0.44,-0.32 -0.62,-0.56 -0.17,-0.24 -0.3,-0.53 -0.4,-0.86 -0.09,-0.34 -0.14,-0.71 -0.14,-1.13 0,-0.42 0.05,-0.79 0.14,-1.12 0.1,-0.33 0.23,-0.62 0.4,-0.85 0.18,-0.23 0.38,-0.4 0.62,-0.53 0.24,-0.12 0.51,-0.19 0.81,-0.19 0.3,0 0.57,0.07 0.81,0.19 0.24,0.13 0.45,0.3 0.62,0.53 0.17,0.23 0.31,0.52 0.4,0.85 0.1,0.33 0.14,0.7 0.14,1.12 0,0.42 -0.04,0.79 -0.14,1.13 -0.09,0.33 -0.23,0.62 -0.4,0.86 -0.17,0.24 -0.38,0.43 -0.62,0.56 -0.24,0.13 -0.51,0.19 -0.81,0.19 z m 4.29,-6.05 V 0 h 0.78 v -3.67 c 0,-0.3 -0.01,-0.63 -0.04,-0.98 -0.02,-0.36 -0.05,-0.69 -0.07,-0.99 h 0.04 l 0.53,1.48 1.29,3.49 h 0.48 l 1.28,-3.49 0.54,-1.48 h 0.04 c -0.03,0.3 -0.05,0.63 -0.08,0.99 -0.02,0.35 -0.03,0.68 -0.03,0.98 V 0 h 0.8 v -6.67 h -1 l -1.28,3.58 -0.46,1.36 h -0.04 l -0.49,-1.36 -1.29,-3.58 z m 7.39,0 V 0 h 3.94 v -0.72 h -3.1 v -2.42 h 2.53 v -0.72 h -2.53 v -2.1 h 3 v -0.71 z m 7.41,0 V 0 h 0.84 v -3.14 h 3.1 V 0 h 0.86 v -6.67 h -0.86 v 2.8 h -3.1 v -2.8 z m 6.63,0 V 0 h 3.94 v -0.72 h -3.1 v -2.42 h 2.53 v -0.72 h -2.53 v -2.1 h 3 v -0.71 z m 5.35,0 V 0 h 3.76 v -0.72 h -2.92 v -5.95 z m 4.94,0 V 0 h 0.84 v -2.64 h 1.2 c 0.37,0 0.7,-0.04 1,-0.13 0.31,-0.08 0.57,-0.21 0.78,-0.38 0.22,-0.17 0.39,-0.38 0.51,-0.64 0.11,-0.26 0.17,-0.56 0.17,-0.92 0,-0.36 -0.06,-0.67 -0.17,-0.92 -0.12,-0.25 -0.29,-0.45 -0.5,-0.61 -0.22,-0.15 -0.48,-0.26 -0.78,-0.33 -0.31,-0.06 -0.64,-0.1 -1.01,-0.1 z m 1.94,3.34 h -1.1 v -2.66 h 1.1 c 0.58,0 1.01,0.1 1.29,0.28 0.29,0.19 0.43,0.52 0.43,1 0,0.48 -0.14,0.83 -0.42,1.05 -0.28,0.22 -0.72,0.33 -1.3,0.33 z"
                 transform="translate(-0.23375811,6.7891486)"
                 id="path12" />
            </g>
          </g>
        </g>
      </g>
      <path
         d="m 61.782,52.514 c 3.112,-2.262 -2.603,-15.173 -2.603,-15.173 -0.139,-0.807 0.129,-1.629 0.715,-2.2 0,0 12.213,-7.085 11.024,-10.745 -1.19,-3.66 -15.235,-2.214 -15.235,-2.214 -0.81,-0.117 -1.509,-0.626 -1.871,-1.359 0,0 -2.965,-13.804 -6.812,-13.804 -3.848,0 -6.813,13.806 -6.813,13.806 -0.361,0.732 -1.062,1.24 -1.871,1.359 0,0 -14.046,-1.447 -15.235,2.213 -1.188,3.66 11.023,10.745 11.023,10.745 0.586,0.571 0.854,1.394 0.715,2.2 0,0 -5.715,12.91 -2.602,15.174 3.114,2.262 13.627,-7.165 13.627,-7.165 0.361,-0.19 0.759,-0.286 1.156,-0.286 0.397,0 0.795,0.096 1.156,0.286 10e-4,0 10.513,9.424 13.626,7.163 z M 94.997,79.68 c 0.366,-2.863 -9.625,-6.377 -9.625,-6.377 -0.512,-0.338 -0.823,-0.907 -0.832,-1.52 0,0 2.406,-10.313 -0.206,-11.546 -2.609,-1.23 -9.037,7.186 -9.037,7.186 -0.48,0.382 -1.118,0.502 -1.704,0.324 0,0 -9.064,-5.476 -11.042,-3.374 -1.979,2.102 4.039,10.818 4.039,10.818 0.215,0.573 0.134,1.218 -0.219,1.719 0,0 -8.008,6.93 -6.62,9.46 1.389,2.53 11.535,-0.5 11.535,-0.5 0.306,-0.013 0.605,0.048 0.876,0.175 0.27,0.128 0.509,0.321 0.691,0.564 0,0 4.115,9.759 6.952,9.222 2.835,-0.539 3.09,-11.126 3.09,-11.126 0.164,-0.59 0.608,-1.064 1.188,-1.265 -0.001,0 10.552,-0.897 10.914,-3.76 z M 19.761,64.931 c -0.4,0.083 -0.815,-0.036 -1.109,-0.32 0,0 -3.745,-5.985 -5.555,-5.33 -1.808,0.655 -0.853,7.651 -0.853,7.651 -0.044,0.406 -0.287,0.764 -0.647,0.958 0,0 -6.849,1.71 -6.786,3.633 0.063,1.925 7.012,3.175 7.012,3.175 0.373,0.169 0.637,0.509 0.71,0.913 0,0 -0.489,7.043 1.359,7.577 1.85,0.533 5.186,-5.689 5.186,-5.689 0.138,-0.15 0.308,-0.263 0.495,-0.33 0.187,-0.068 0.39,-0.091 0.591,-0.062 0,0 6.548,2.643 7.628,1.048 1.078,-1.593 -3.808,-6.69 -3.808,-6.69 -0.201,-0.354 -0.217,-0.787 -0.04,-1.155 0,0 4.537,-5.411 3.354,-6.929 -1.178,-1.521 -7.537,1.55 -7.537,1.55 z"
         id="path2"
         style="mix-blend-mode:darken;fill:#41b883;fill-opacity:1;fill-rule:nonzero;stroke-width:6.20229;stroke-dasharray:none"
         transform="matrix(0.46525229,0,0,0.44299084,80.981126,83.909997)" />
    </g>
  </g>
</svg>
